# xmcd
#
# Track frame offsets:
#	150
#	17500
#	35807
#	59802
#	75280
#	103710
#
# Disc length: 1718 seconds
#
# Revision: 1
# Processed by: cddbd v1.5PL3 Copyright (c) Steve Scherf et al.
# Submitted via: audiograbber 1.81.02
#
DISCID=4506b406
DTITLE=Whigfield - Gimme Gimme
DYEAR=1996
DGENRE=Dance
TTITLE0=Gimme American Radio Video Version
TTITLE1=Gimme Original Radio Video Vox
TTITLE2=Gimme American Mix
TTITLE3=Gimme MBRG Radio Mix
TTITLE4=Gimme Extended Vox
TTITLE5=Gimme MBRG Extended Mix
EXTD=
EXTT0=
EXTT1=
EXTT2=
EXTT3=
EXTT4=
EXTT5=
PLAYORDER=
